<svg xmlns="http://www.w3.org/2000/svg" viewBox="0 0 64 64"><path fill="#00459a" d="M54.75,7.93,33.51,25a7.19,7.19,0,0,1-9,0L3.25,7.93A3.55,3.55,0,0,1,5.6,7.06H52.4A3.55,3.55,0,0,1,54.75,7.93Z"/><path fill="#bedcff" d="M56,10.66V32.15A13.54,13.54,0,0,0,34.92,43.4,14,14,0,0,0,35,44.86H5.6A3.55,3.55,0,0,1,3.25,44,3.62,3.62,0,0,1,2,41.26V10.66A3.62,3.62,0,0,1,3.25,7.93L24.49,25a7.19,7.19,0,0,0,9,0L54.75,7.93A3.62,3.62,0,0,1,56,10.66Z"/><path fill="#fff" d="M62,43.4a13.54,13.54,0,0,1-27,1.46,14,14,0,0,1-.08-1.46A13.54,13.54,0,1,1,62,43.4Z"/><path d="M58,31.16V10.66a5.6,5.6,0,0,0-5.6-5.6H5.6A5.6,5.6,0,0,0,0,10.66v30.6a5.6,5.6,0,0,0,5.6,5.6H33.33A15.53,15.53,0,1,0,58,31.16Zm-9.54-3.3A15.47,15.47,0,0,0,39.4,30.8l-2.82-2-2.3,3.28,2.14,1.5A15.41,15.41,0,0,0,33,42.86H8.35L23.72,32.1l-2.29-3.28L4,41V11.1L23.23,26.59a9.29,9.29,0,0,0,11.54,0L54,11.1V28.9A15.45,15.45,0,0,0,48.46,27.86ZM7.84,9.06H50.16L32.26,23.47a5.23,5.23,0,0,1-6.52,0ZM48.46,54.94A11.54,11.54,0,1,1,60,43.4,11.56,11.56,0,0,1,48.46,54.94Z"/><path d="M50.46,33.4h-4v10a2,2,0,0,0,2,2H56v-4H50.46Z"/></svg>