<svg xmlns="http://www.w3.org/2000/svg" viewBox="0 0 30 30"><g transform="translate(-1312.168 -162.92) scale(3.77953)"><path fill="#30d158" d="m 354.32145,47.074883 a 3.175,3.175 0 0 1 -3.175,3.174999 3.175,3.175 0 0 1 -3.175,-3.174999 3.175,3.175 0 0 1 3.175,-3.175 3.175,3.175 0 0 1 3.175,3.175 z"/><path fill="#2f9d3d" d="m 352.37406,46.484781 -1.5875,1.323 a 0.26458333,0.26458333 0 0 1 -0.3571,-0.016 l -0.5292,-0.5292 a 0.2656659,0.2656659 0 0 1 0.3757,-0.3757 l 0.3572,0.3598 1.4023,-1.1694 a 0.26491451,0.26491451 0 1 1 0.3386,0.4074 z"/></g></svg>